# xmcd CD database file
#
# Track frame offsets:
#	150
#	19647
#	37366
#	56547
#	67233
#	88360
#	101652
#	116805
#	127102
#	144713
#	161047
#	173005
#	192363
#
# Disc length: 2797 seconds
#
# Revision: 0
# Processed by: cddbd v1.5.2PL0 Copyright (c) Steve Scherf et al.
# Submitted via: CDex 1.70beta2
#
DISCID=ca0aeb0d
DTITLE=Les Pommes de ma Douche - Emules de Django,Disciples de Brassens
DYEAR=2011
DGENRE=Jazz
TTITLE0=L' Ancêtre
TTITLE1=Le Temps Ne Fait Rien À L' Affaire
TTITLE2=Je M'suis Fait Tout P'tit
TTITLE3=Les Sabots D' Hélène
TTITLE4=Auprès De Mon Arbre
TTITLE5=Les Amoureux Des Bancs Publics
TTITLE6=Quatre-Vingt-Quinze Pour Cent
TTITLE7=Le Cocu
TTITLE8=L' Orage
TTITLE9=Maman, Papa
TTITLE10=La Marine
TTITLE11=J' Ai Rendez-Vous Avec Vous
TTITLE12=Trompettes De La Renommée
EXTD=YEAR: 2011
EXTT0=
EXTT1=
EXTT2=
EXTT3=
EXTT4=
EXTT5=
EXTT6=
EXTT7=
EXTT8=
EXTT9=
EXTT10=
EXTT11=
EXTT12=
PLAYORDER=
